<?xml version="1.0" encoding="UTF-8"?>
<svg width="120px" height="120px" viewBox="0 0 120 120" version="1.1" xmlns="http://www.w3.org/2000/svg" xmlns:xlink="http://www.w3.org/1999/xlink">
    <!-- Generator: sketchtool 55.2 (78181) - https://sketchapp.com -->
    <title>6F70BA78-A929-46B1-8FB3-AA76ADD2658F</title>
    <desc>Created with sketchtool.</desc>
    <defs>
        <linearGradient x1="19.907803%" y1="14.0446646%" x2="60.796491%" y2="72.3587219%" id="linearGradient-1">
            <stop stop-color="#FF758C" offset="0%"></stop>
            <stop stop-color="#FF7EB3" offset="100%"></stop>
        </linearGradient>
    </defs>
    <g id="Symbols" stroke="none" stroke-width="1" fill="none" fill-rule="evenodd">
        <g id="Image-/-img-placeholder-episodes">
            <g id="Group-3" transform="translate(5.000000, 9.000000)">
                <g id="Group-2" transform="translate(15.000000, 0.000000)">
                    <polyline id="Stroke-11" stroke="#2E2E2E" stroke-width="6" stroke-linecap="round" points="42 73 42 98.368 46.947 98.368"></polyline>
                    <path d="M58,68 L58,83.816" id="Stroke-17" stroke="#2E2E2E" stroke-width="6" stroke-linecap="round"></path>
                    <path d="M0,71 L0,86.816" id="Stroke-17-Copy" stroke="#2E2E2E" stroke-width="6" stroke-linecap="round"></path>
                    <polyline id="Stroke-13" stroke="#2E2E2E" stroke-width="6" stroke-linecap="round" points="26.947 73 26.947 98.368 22 98.368"></polyline>
                    <path d="M77.4982195,33.5200231 C64.0732195,22.9940231 40.0112195,7.31502314 24.7342195,1.40202314 C14.1622195,-2.68997686 3.90321955,2.41002314 2.35421955,13.6400231 C-0.0917804532,31.3920231 -0.739780453,59.2910231 0.922219547,75.3930231 C2.08621955,86.6700231 12.0562195,92.5300231 22.7102195,88.6560231 C37.0822195,83.4310231 64.1702195,68.9380231 76.9062195,59.0200231 C85.8512195,52.0540231 86.4202195,40.5140231 77.4982195,33.5200231" id="Fill-1" fill="url(#linearGradient-1)"></path>
                    <path d="M43,50.9186047 C43,47.0976744 46.0976744,44 49.9186047,44 C53.7401163,44 56.8377907,47.0976744 56.8377907,50.9186047" id="Stroke-6" stroke="#2E2E2E" stroke-width="6" stroke-linecap="round" transform="translate(49.918895, 47.459302) scale(1, -1) translate(-49.918895, -47.459302) "></path>
                    <path d="M15.1191283,54.1917825 C14.4168027,50.4359686 16.8918027,46.8214337 20.6481981,46.1191081 C24.404012,45.4167825 28.0179655,47.8923639 28.7208725,51.6481779" id="Stroke-8" stroke="#2E2E2E" stroke-width="6" stroke-linecap="round" transform="translate(21.860436, 50.095891) scale(1, -1) translate(-21.860436, -50.095891) "></path>
                    <circle id="Oval-2" fill="#2E2E2E" cx="31" cy="68" r="4"></circle>
                </g>
                <polyline id="Path-3" stroke="#2E2E2E" stroke-width="3" stroke-linecap="round" stroke-linejoin="round" points="0 53.4511719 6.3046875 50 4.49316406 59.4931641 10.9609375 56.3925781"></polyline>
                <polyline id="Path-3-Copy" stroke="#2E2E2E" stroke-width="3" stroke-linecap="round" stroke-linejoin="round" transform="translate(11.433817, 31.405209) rotate(44.000000) translate(-11.433817, -31.405209) " points="2.77823964 29.3593035 12.7355462 23.9086961 9.87451716 38.9017223 20.0893935 34.0048127"></polyline>
            </g>
        </g>
    </g>
</svg>